# xmcd
#
# Track frame offsets: 
#        150
#        17355
#        31905
#        44432
#        63587
#        74960
#        91887
#        105762
#        122655
#        135967
#
# Disc length: 1987 seconds
#
# Revision: 3
# Processed by: cddbd v1.4PL0 Copyright (c) Steve Scherf et al.
# Submitted via: ExactAudioCopy v0.90b4
#
DISCID=7c07c10a
DTITLE=Various Artist - Hot Cajun Country
DYEAR=1995
DGENRE=Cajun
TTITLE0=Making Love In The Chicken Coop
TTITLE1=My Nanette
TTITLE2=A Ma Maison
TTITLE3=Tear Stained Letter
TTITLE4=Evangeline Special
TTITLE5=Old Home Waltz
TTITLE6=Went To The Dance (J'ai Ete Au Bal)
TTITLE7=Joli Couer
TTITLE8=Nonc Lloyd Two-Step
TTITLE9=Pine Grove Blues
EXTD=
EXTT0=Danny Collet
EXTT1=Zachary Richard
EXTT2=Terrence Simien
EXTT3=Jo-el Sonnier
EXTT4=Iry LeJeune
EXTT5=Steve Riley and The Mamou Players
EXTT6=Wayne Toups
EXTT7=Mamou
EXTT8=Lee Benoit
EXTT9=Nathan Abshire
PLAYORDER=
